<?xml version="1.0" standalone="no"?>
<!DOCTYPE svg PUBLIC "-//W3C//DTD SVG 20010904//EN"
 "http://www.w3.org/TR/2001/REC-SVG-20010904/DTD/svg10.dtd">
<svg version="1.0" xmlns="http://www.w3.org/2000/svg"
 width="278.000000pt" height="200.000000pt" viewBox="0 0 278.000000 200.000000"
 preserveAspectRatio="xMidYMid meet">

<g transform="translate(0.000000,200.000000) scale(0.100000,-0.100000)"
fill="#000000" stroke="none">
<path d="M0 1000 l0 -1000 1390 0 1390 0 0 1000 0 1000 -1390 0 -1390 0 0
-1000z m1745 0 c97 -217 179 -401 182 -407 3 -9 -4 -13 -24 -13 -21 0 -46 17
-103 70 -166 156 -344 297 -488 387 -40 25 -71 47 -69 50 9 8 190 -76 280
-130 51 -31 132 -87 180 -126 49 -40 86 -68 83 -63 -2 4 -53 116 -111 248 -58
131 -110 243 -114 247 -5 4 -32 -48 -62 -117 -30 -69 -59 -126 -65 -126 -5 0
-18 6 -27 12 -16 12 -10 29 65 196 45 100 85 179 89 175 4 -5 87 -186 184
-403z m-380 308 c76 -28 88 -40 74 -72 -7 -15 -15 -25 -18 -23 -88 49 -124 59
-204 55 -95 -4 -147 -26 -214 -90 -61 -59 -87 -126 -87 -218 -1 -89 24 -154
82 -213 69 -72 136 -99 238 -99 93 -1 183 44 245 122 28 35 34 37 55 28 13 -6
24 -14 24 -18 0 -14 -62 -89 -92 -112 -90 -69 -206 -98 -305 -78 -170 35 -294
168 -310 333 -26 279 248 486 512 385z m35 -342 c9 -12 0 -41 -47 -148 -57
-128 -61 -133 -91 -136 -38 -4 -41 -15 43 172 32 69 63 126 70 126 7 0 18 -6
25 -14z"/>
</g>
</svg>
